<?xml version="1.0" standalone="no"?>
<!DOCTYPE svg PUBLIC "-//W3C//DTD SVG 20010904//EN"
 "http://www.w3.org/TR/2001/REC-SVG-20010904/DTD/svg10.dtd">
<svg version="1.0" xmlns="http://www.w3.org/2000/svg"
 width="1080.000000pt" height="1080.000000pt" viewBox="0 0 1080.000000 1080.000000"
 preserveAspectRatio="xMidYMid meet">

<g transform="translate(0.000000,1080.000000) scale(0.100000,-0.100000)"
fill="#000000" stroke="none">
<path d="M2359 10729 c-169 -18 -392 -94 -524 -178 -286 -183 -480 -429 -575
-726 -48 -152 -48 -153 -62 -265 -18 -147 -19 -8235 -1 -8350 26 -161 77 -344
128 -456 8 -17 21 -80 30 -139 14 -104 73 -301 113 -382 26 -52 80 -150 109
-196 l23 -37 120 0 c116 0 120 1 110 19 -5 11 -14 22 -19 26 -34 20 -195 315
-173 315 5 0 87 -39 183 -87 251 -127 371 -164 589 -183 182 -16 6111 -8 6195
8 176 35 268 68 479 173 98 49 181 87 184 84 16 -16 -135 -285 -182 -324 -9
-7 -16 -17 -16 -22 0 -5 53 -9 119 -9 l119 0 39 68 c118 200 203 430 203 550
0 20 16 82 36 137 55 157 61 176 79 245 9 36 21 82 26 103 39 147 39 160 38
3462 -1 1749 -4 3329 -8 3510 -6 321 -7 331 -30 380 -19 40 -236 262 -1115
1142 -760 760 -1105 1098 -1136 1115 l-45 23 -2480 1 c-1364 1 -2514 -2 -2556
-7z m4691 -722 c0 -107 -3 -234 -6 -284 l-7 -90 -161 -12 c-251 -19 -1012 -41
-1421 -41 -396 0 -1165 22 -1429 40 -89 6 -305 23 -481 36 -176 14 -381 29
-455 35 -74 5 -169 14 -210 19 -587 74 -789 63 -1013 -54 -38 -20 -70 -36 -73
-36 -7 0 8 95 17 105 5 5 9 16 9 25 0 31 92 171 150 230 97 97 214 163 355
200 67 18 170 19 2398 19 l2327 1 0 -193z m1136 -783 c313 -317 570 -579 572
-584 6 -17 -19 -19 -131 -8 l-117 12 -78 71 c-76 67 -142 125 -263 231 -102
90 -403 362 -476 431 l-72 68 -16 125 c-19 160 -20 230 -1 230 7 0 269 -259
582 -576z m-5506 306 c198 -27 971 -90 1365 -110 116 -6 216 -13 224 -16 7 -2
279 -9 605 -15 636 -11 1567 0 1862 23 128 9 176 9 231 -1 l70 -12 6 -127 c4
-70 7 -324 7 -565 l0 -438 26 -55 c14 -30 48 -78 74 -106 l49 -51 3 -318 c3
-303 4 -319 24 -346 38 -51 78 -65 179 -59 194 11 554 44 890 82 246 27 630
76 637 80 4 3 51 5 104 5 71 1 100 -3 111 -13 31 -32 34 -360 31 -3293 -4
-2910 -4 -2910 -25 -2975 -54 -170 -98 -253 -186 -347 -117 -125 -259 -205
-422 -237 -73 -15 -364 -16 -3130 -14 l-3050 3 -70 24 c-289 97 -483 312 -549
607 -15 65 -16 420 -15 3845 0 2076 4 3846 8 3934 9 184 12 194 98 276 90 88
252 179 354 200 30 6 83 17 119 25 71 14 242 12 370 -6z m5092 -581 c57 -36
169 -130 284 -238 l71 -67 -131 -17 c-72 -10 -185 -17 -252 -17 -164 0 -160
-5 -145 172 6 73 14 150 18 172 l6 38 48 -4 c31 -3 66 -17 101 -39z m913 -897
c22 -5 61 -13 87 -17 45 -6 48 -9 72 -58 14 -29 28 -72 31 -97 10 -87 -54
-167 -166 -205 -61 -21 -289 -50 -659 -85 -52 -5 -144 -14 -205 -19 -194 -18
-292 11 -354 107 -35 55 -50 137 -51 269 l0 82 53 15 c28 8 63 17 77 19 50 10
1075 0 1115 -11z"/>
<path d="M4245 6009 c-105 -14 -145 -26 -145 -44 0 -8 -9 -16 -19 -20 -10 -3
-21 -13 -25 -23 -3 -9 -10 -24 -15 -32 -23 -34 -88 -178 -100 -220 -20 -70
-62 -208 -88 -287 -12 -39 -23 -82 -23 -95 0 -13 -18 -43 -41 -68 -59 -66
-134 -184 -159 -248 -12 -31 -26 -66 -31 -77 -6 -11 -11 -32 -13 -46 -1 -13
-5 -29 -8 -35 -20 -32 -19 -138 3 -255 31 -168 54 -214 158 -319 106 -106 311
-270 338 -270 3 0 14 -6 22 -14 23 -19 156 -89 242 -126 41 -17 92 -40 114
-50 147 -66 387 -131 550 -149 108 -12 369 -8 445 7 179 33 358 102 464 177
84 60 152 161 212 315 9 25 22 51 27 58 6 7 11 25 13 40 1 15 14 94 28 176 15
82 24 156 21 165 -3 9 -7 41 -10 71 -3 30 -13 81 -21 113 -14 55 -14 61 5 100
26 53 37 106 51 237 6 58 22 148 36 201 14 56 27 143 30 205 9 160 10 160
-281 141 -177 -12 -423 -45 -431 -58 -3 -5 -13 -9 -23 -9 -10 0 -36 -8 -57
-17 -22 -9 -43 -15 -49 -14 -5 2 -46 10 -90 17 -81 14 -235 48 -290 64 -27 8
-128 28 -180 36 -11 1 -55 9 -99 18 -52 10 -84 12 -96 6 -14 -8 -23 -2 -46 28
-75 99 -324 328 -324 298 0 -3 -10 -2 -22 2 -13 4 -45 5 -73 1z m114 -155 c71
-60 180 -180 217 -239 54 -89 76 -98 244 -109 41 -3 110 -12 153 -21 43 -8 95
-15 115 -15 21 0 80 -12 132 -26 247 -69 238 -68 361 -28 52 17 70 21 154 35
33 6 71 15 85 20 37 13 99 21 155 19 45 -1 54 -5 87 -42 30 -34 39 -55 49
-112 15 -80 15 -243 2 -296 l-9 -35 -19 35 c-10 19 -21 37 -24 40 -3 3 -15 22
-26 44 -24 47 -150 165 -210 197 -37 20 -47 21 -70 11 -26 -12 -26 -13 -11
-37 9 -13 16 -31 16 -40 0 -8 5 -15 10 -15 6 0 10 -13 10 -30 0 -21 12 -41 45
-73 25 -25 45 -52 45 -60 0 -9 4 -18 9 -21 4 -3 16 -27 26 -53 24 -66 94 -211
109 -226 22 -23 36 -133 36 -283 0 -83 -3 -153 -6 -157 -3 -3 -19 -45 -35 -92
-51 -152 -171 -296 -297 -356 -37 -18 -74 -38 -82 -44 -8 -6 -42 -20 -75 -30
-33 -10 -69 -22 -80 -27 -26 -11 -365 -3 -470 11 -44 6 -117 15 -162 21 -46 5
-104 16 -130 25 -26 9 -61 18 -78 19 -17 2 -39 7 -50 13 -11 6 -50 20 -88 32
-37 12 -92 32 -123 46 -31 14 -62 25 -69 25 -8 0 -15 4 -17 9 -1 5 -43 30 -93
56 -49 26 -98 55 -107 64 -9 9 -49 41 -88 71 -243 186 -280 239 -274 390 5
116 12 191 22 232 6 20 8 39 5 42 -2 2 6 21 20 43 13 21 43 72 67 113 34 59
82 113 218 247 160 157 202 207 202 236 0 20 -51 77 -69 77 -10 0 -28 -9 -41
-20 -13 -11 -26 -20 -30 -20 -3 0 -15 -8 -26 -17 -10 -10 -36 -30 -56 -46
l-37 -27 13 37 c54 153 123 273 204 356 65 66 93 72 141 31z"/>
<path d="M4188 5098 c-35 -12 -36 -31 -3 -52 22 -14 23 -19 12 -37 -16 -26 5
-43 82 -64 163 -45 271 -82 373 -127 39 -18 52 -19 73 -10 27 13 32 31 13 51
-7 7 5 4 27 -7 86 -43 148 -25 96 27 -13 13 -16 22 -9 29 23 23 2 45 -62 67
-36 12 -96 34 -135 49 -187 72 -386 104 -467 74z m472 -204 c0 -2 -7 -4 -15
-4 -8 0 -15 4 -15 10 0 5 7 7 15 4 8 -4 15 -8 15 -10z"/>
<path d="M5120 4806 c-15 -15 -12 -32 6 -47 15 -12 14 -14 -7 -19 -18 -5 -24
-13 -24 -33 0 -25 8 -32 88 -68 113 -51 221 -118 355 -220 75 -58 115 -82 136
-83 17 0 31 4 32 9 0 6 4 18 9 28 8 20 -9 67 -25 67 -5 0 -10 5 -10 11 0 8 5
8 15 -1 8 -7 15 -9 15 -5 0 4 11 -4 25 -19 24 -26 59 -34 70 -16 13 22 -9 51
-79 107 -143 113 -213 159 -346 227 -115 58 -144 69 -192 71 -31 1 -62 -3 -68
-9z"/>
<path d="M4415 4593 c-57 -12 -96 -39 -131 -88 -37 -54 -55 -127 -35 -139 6
-4 11 -15 11 -26 0 -10 15 -32 34 -48 41 -36 110 -53 211 -51 186 2 185 2 204
-60 24 -81 177 -176 281 -175 92 0 144 52 170 169 14 62 5 130 -21 156 -24 24
-49 24 -49 0 0 -11 -7 -26 -15 -35 -8 -8 -15 -19 -15 -25 0 -6 -4 -11 -8 -11
-4 0 -12 -13 -18 -28 -8 -20 -22 -32 -52 -41 -64 -21 -114 -3 -155 57 -62 90
-91 116 -128 114 -219 -9 -319 1 -319 33 0 30 24 64 51 74 16 6 42 16 58 22
39 14 43 37 13 77 -24 31 -39 36 -87 25z"/>
<path d="M6966 5893 c-19 -62 -354 -1142 -482 -1553 -85 -272 -157 -503 -160
-512 -5 -17 7 -18 155 -18 l159 0 21 63 c11 34 97 310 190 612 93 303 205 663
249 800 123 384 153 485 157 513 2 15 8 40 14 55 22 58 24 57 -143 57 -139 0
-155 -2 -160 -17z"/>
<path d="M2830 5287 l-575 -232 -3 -155 -2 -156 97 -44 c170 -75 1057 -428
1065 -424 10 6 9 219 0 288 l-7 48 -260 98 c-369 140 -459 176 -462 187 -2 6
157 70 353 144 196 73 363 139 372 145 13 9 14 33 6 172 l-9 161 -575 -232z"/>
<path d="M7470 5330 l0 -151 38 -16 c20 -8 55 -23 77 -33 22 -10 158 -62 303
-116 144 -53 262 -101 262 -105 0 -12 -70 -41 -370 -154 -151 -57 -283 -106
-292 -110 -16 -6 -18 -24 -18 -156 0 -96 4 -149 10 -149 6 0 39 9 73 21 92 31
979 389 994 401 14 11 17 154 5 241 l-7 49 -517 208 c-285 115 -527 211 -538
215 -19 6 -20 2 -20 -145z"/>
</g>
</svg>
